<svg id="mermaid-1584826734579" width="1160.01171875" xmlns="http://www.w3.org/2000/svg" height="784" viewBox="-10 -10 780.0078125 764"><style>



#mermaid-1584826734579 .label {
  font-family: 'trebuchet ms', verdana, arial;
  font-family: var(--mermaid-font-family);
  color: #333; }

#mermaid-1584826734579 .label text {
  fill: #333; }

#mermaid-1584826734579 .node rect,
#mermaid-1584826734579 .node circle,
#mermaid-1584826734579 .node ellipse,
#mermaid-1584826734579 .node polygon,
#mermaid-1584826734579 .node path {
  fill: #ECECFF;
  stroke: #9370DB;
  stroke-width: 1px; }

#mermaid-1584826734579 .node .label {
  text-align: center; }

#mermaid-1584826734579 .node.clickable {
  cursor: pointer; }

#mermaid-1584826734579 .arrowheadPath {
  fill: #333333; }

#mermaid-1584826734579 .edgePath .path {
  stroke: #333333;
  stroke-width: 1.5px; }

#mermaid-1584826734579 .edgeLabel {
  background-color: #e8e8e8;
  text-align: center; }

#mermaid-1584826734579 .cluster rect {
  fill: #ffffde;
  stroke: #aaaa33;
  stroke-width: 1px; }

#mermaid-1584826734579 .cluster text {
  fill: #333; }

#mermaid-1584826734579 div.mermaidTooltip {
  position: absolute;
  text-align: center;
  max-width: 200px;
  padding: 2px;
  font-family: 'trebuchet ms', verdana, arial;
  font-family: var(--mermaid-font-family);
  font-size: 12px;
  background: #ffffde;
  border: 1px solid #aaaa33;
  border-radius: 2px;
  pointer-events: none;
  z-index: 100; }

#mermaid-1584826734579 .actor {
  stroke: #CCCCFF;
  fill: #ECECFF; }

#mermaid-1584826734579 text.actor {
  fill: black;
  stroke: none; }

#mermaid-1584826734579 .actor-line {
  stroke: grey; }

#mermaid-1584826734579 .messageLine0 {
  stroke-width: 1.5;
  stroke-dasharray: '2 2';
  stroke: #333; }

#mermaid-1584826734579 .messageLine1 {
  stroke-width: 1.5;
  stroke-dasharray: '2 2';
  stroke: #333; }

#mermaid-1584826734579 #arrowhead {
  fill: #333; }

#mermaid-1584826734579 .sequenceNumber {
  fill: white; }

#mermaid-1584826734579 #sequencenumber {
  fill: #333; }

#mermaid-1584826734579 #crosshead path {
  fill: #333 !important;
  stroke: #333 !important; }

#mermaid-1584826734579 .messageText {
  fill: #333;
  stroke: none; }

#mermaid-1584826734579 .labelBox {
  stroke: #CCCCFF;
  fill: #ECECFF; }

#mermaid-1584826734579 .labelText {
  fill: black;
  stroke: none; }

#mermaid-1584826734579 .loopText {
  fill: black;
  stroke: none; }

#mermaid-1584826734579 .loopLine {
  stroke-width: 2;
  stroke-dasharray: '2 2';
  stroke: #CCCCFF; }

#mermaid-1584826734579 .note {
  stroke: #aaaa33;
  fill: #fff5ad; }

#mermaid-1584826734579 .noteText {
  fill: black;
  stroke: none;
  font-family: 'trebuchet ms', verdana, arial;
  font-family: var(--mermaid-font-family);
  font-size: 14px; }

#mermaid-1584826734579 .activation0 {
  fill: #f4f4f4;
  stroke: #666; }

#mermaid-1584826734579 .activation1 {
  fill: #f4f4f4;
  stroke: #666; }

#mermaid-1584826734579 .activation2 {
  fill: #f4f4f4;
  stroke: #666; }


#mermaid-1584826734579 .mermaid-main-font {
  font-family: "trebuchet ms", verdana, arial;
  font-family: var(--mermaid-font-family); }

#mermaid-1584826734579 .section {
  stroke: none;
  opacity: 0.2; }

#mermaid-1584826734579 .section0 {
  fill: rgba(102, 102, 255, 0.49); }

#mermaid-1584826734579 .section2 {
  fill: #fff400; }

#mermaid-1584826734579 .section1,
#mermaid-1584826734579 .section3 {
  fill: white;
  opacity: 0.2; }

#mermaid-1584826734579 .sectionTitle0 {
  fill: #333; }

#mermaid-1584826734579 .sectionTitle1 {
  fill: #333; }

#mermaid-1584826734579 .sectionTitle2 {
  fill: #333; }

#mermaid-1584826734579 .sectionTitle3 {
  fill: #333; }

#mermaid-1584826734579 .sectionTitle {
  text-anchor: start;
  font-size: 11px;
  text-height: 14px;
  font-family: 'trebuchet ms', verdana, arial;
  font-family: var(--mermaid-font-family); }


#mermaid-1584826734579 .grid .tick {
  stroke: lightgrey;
  opacity: 0.8;
  shape-rendering: crispEdges; }
#mermaid-1584826734579   .grid .tick text {
    font-family: 'trebuchet ms', verdana, arial;
    font-family: var(--mermaid-font-family); }

#mermaid-1584826734579 .grid path {
  stroke-width: 0; }


#mermaid-1584826734579 .today {
  fill: none;
  stroke: red;
  stroke-width: 2px; }



#mermaid-1584826734579 .task {
  stroke-width: 2; }

#mermaid-1584826734579 .taskText {
  text-anchor: middle;
  font-family: 'trebuchet ms', verdana, arial;
  font-family: var(--mermaid-font-family); }

#mermaid-1584826734579 .taskText:not([font-size]) {
  font-size: 11px; }

#mermaid-1584826734579 .taskTextOutsideRight {
  fill: black;
  text-anchor: start;
  font-size: 11px;
  font-family: 'trebuchet ms', verdana, arial;
  font-family: var(--mermaid-font-family); }

#mermaid-1584826734579 .taskTextOutsideLeft {
  fill: black;
  text-anchor: end;
  font-size: 11px; }


#mermaid-1584826734579 .task.clickable {
  cursor: pointer; }

#mermaid-1584826734579 .taskText.clickable {
  cursor: pointer;
  fill: #003163 !important;
  font-weight: bold; }

#mermaid-1584826734579 .taskTextOutsideLeft.clickable {
  cursor: pointer;
  fill: #003163 !important;
  font-weight: bold; }

#mermaid-1584826734579 .taskTextOutsideRight.clickable {
  cursor: pointer;
  fill: #003163 !important;
  font-weight: bold; }


#mermaid-1584826734579 .taskText0,
#mermaid-1584826734579 .taskText1,
#mermaid-1584826734579 .taskText2,
#mermaid-1584826734579 .taskText3 {
  fill: white; }

#mermaid-1584826734579 .task0,
#mermaid-1584826734579 .task1,
#mermaid-1584826734579 .task2,
#mermaid-1584826734579 .task3 {
  fill: #8a90dd;
  stroke: #534fbc; }

#mermaid-1584826734579 .taskTextOutside0,
#mermaid-1584826734579 .taskTextOutside2 {
  fill: black; }

#mermaid-1584826734579 .taskTextOutside1,
#mermaid-1584826734579 .taskTextOutside3 {
  fill: black; }


#mermaid-1584826734579 .active0,
#mermaid-1584826734579 .active1,
#mermaid-1584826734579 .active2,
#mermaid-1584826734579 .active3 {
  fill: #bfc7ff;
  stroke: #534fbc; }

#mermaid-1584826734579 .activeText0,
#mermaid-1584826734579 .activeText1,
#mermaid-1584826734579 .activeText2,
#mermaid-1584826734579 .activeText3 {
  fill: black !important; }


#mermaid-1584826734579 .done0,
#mermaid-1584826734579 .done1,
#mermaid-1584826734579 .done2,
#mermaid-1584826734579 .done3 {
  stroke: grey;
  fill: lightgrey;
  stroke-width: 2; }

#mermaid-1584826734579 .doneText0,
#mermaid-1584826734579 .doneText1,
#mermaid-1584826734579 .doneText2,
#mermaid-1584826734579 .doneText3 {
  fill: black !important; }


#mermaid-1584826734579 .crit0,
#mermaid-1584826734579 .crit1,
#mermaid-1584826734579 .crit2,
#mermaid-1584826734579 .crit3 {
  stroke: #ff8888;
  fill: red;
  stroke-width: 2; }

#mermaid-1584826734579 .activeCrit0,
#mermaid-1584826734579 .activeCrit1,
#mermaid-1584826734579 .activeCrit2,
#mermaid-1584826734579 .activeCrit3 {
  stroke: #ff8888;
  fill: #bfc7ff;
  stroke-width: 2; }

#mermaid-1584826734579 .doneCrit0,
#mermaid-1584826734579 .doneCrit1,
#mermaid-1584826734579 .doneCrit2,
#mermaid-1584826734579 .doneCrit3 {
  stroke: #ff8888;
  fill: lightgrey;
  stroke-width: 2;
  cursor: pointer;
  shape-rendering: crispEdges; }

#mermaid-1584826734579 .milestone {
  transform: rotate(45deg) scale(0.8, 0.8); }

#mermaid-1584826734579 .milestoneText {
  font-style: italic; }

#mermaid-1584826734579 .doneCritText0,
#mermaid-1584826734579 .doneCritText1,
#mermaid-1584826734579 .doneCritText2,
#mermaid-1584826734579 .doneCritText3 {
  fill: black !important; }

#mermaid-1584826734579 .activeCritText0,
#mermaid-1584826734579 .activeCritText1,
#mermaid-1584826734579 .activeCritText2,
#mermaid-1584826734579 .activeCritText3 {
  fill: black !important; }

#mermaid-1584826734579 .titleText {
  text-anchor: middle;
  font-size: 18px;
  fill: black;
  font-family: 'trebuchet ms', verdana, arial;
  font-family: var(--mermaid-font-family); }

#mermaid-1584826734579 g.classGroup text {
  fill: #9370DB;
  stroke: none;
  font-family: 'trebuchet ms', verdana, arial;
  font-family: var(--mermaid-font-family);
  font-size: 10px; }
#mermaid-1584826734579   g.classGroup text .title {
    font-weight: bolder; }

#mermaid-1584826734579 g.clickable {
  cursor: pointer; }

#mermaid-1584826734579 g.classGroup rect {
  fill: #ECECFF;
  stroke: #9370DB; }

#mermaid-1584826734579 g.classGroup line {
  stroke: #9370DB;
  stroke-width: 1; }

#mermaid-1584826734579 .classLabel .box {
  stroke: none;
  stroke-width: 0;
  fill: #ECECFF;
  opacity: 0.5; }

#mermaid-1584826734579 .classLabel .label {
  fill: #9370DB;
  font-size: 10px; }

#mermaid-1584826734579 .relation {
  stroke: #9370DB;
  stroke-width: 1;
  fill: none; }

#mermaid-1584826734579 .dashed-line {
  stroke-dasharray: 3; }

#mermaid-1584826734579 #compositionStart {
  fill: #9370DB;
  stroke: #9370DB;
  stroke-width: 1; }

#mermaid-1584826734579 #compositionEnd {
  fill: #9370DB;
  stroke: #9370DB;
  stroke-width: 1; }

#mermaid-1584826734579 #aggregationStart {
  fill: #ECECFF;
  stroke: #9370DB;
  stroke-width: 1; }

#mermaid-1584826734579 #aggregationEnd {
  fill: #ECECFF;
  stroke: #9370DB;
  stroke-width: 1; }

#mermaid-1584826734579 #dependencyStart {
  fill: #9370DB;
  stroke: #9370DB;
  stroke-width: 1; }

#mermaid-1584826734579 #dependencyEnd {
  fill: #9370DB;
  stroke: #9370DB;
  stroke-width: 1; }

#mermaid-1584826734579 #extensionStart {
  fill: #9370DB;
  stroke: #9370DB;
  stroke-width: 1; }

#mermaid-1584826734579 #extensionEnd {
  fill: #9370DB;
  stroke: #9370DB;
  stroke-width: 1; }

#mermaid-1584826734579 .commit-id,
#mermaid-1584826734579 .commit-msg,
#mermaid-1584826734579 .branch-label {
  fill: lightgrey;
  color: lightgrey;
  font-family: 'trebuchet ms', verdana, arial;
  font-family: var(--mermaid-font-family); }

#mermaid-1584826734579 .pieTitleText {
  text-anchor: middle;
  font-size: 25px;
  fill: black;
  font-family: 'trebuchet ms', verdana, arial;
  font-family: var(--mermaid-font-family); }

#mermaid-1584826734579 .slice {
  font-family: 'trebuchet ms', verdana, arial;
  font-family: var(--mermaid-font-family); }

#mermaid-1584826734579 g.stateGroup text {
  fill: #9370DB;
  stroke: none;
  font-size: 10px;
  font-family: 'trebuchet ms', verdana, arial;
  font-family: var(--mermaid-font-family); }

#mermaid-1584826734579 g.stateGroup text {
  fill: #9370DB;
  stroke: none;
  font-size: 10px; }

#mermaid-1584826734579 g.stateGroup .state-title {
  font-weight: bolder;
  fill: black; }

#mermaid-1584826734579 g.stateGroup rect {
  fill: #ECECFF;
  stroke: #9370DB; }

#mermaid-1584826734579 g.stateGroup line {
  stroke: #9370DB;
  stroke-width: 1; }

#mermaid-1584826734579 .transition {
  stroke: #9370DB;
  stroke-width: 1;
  fill: none; }

#mermaid-1584826734579 .stateGroup .composit {
  fill: white;
  border-bottom: 1px; }

#mermaid-1584826734579 .stateGroup .alt-composit {
  fill: #e0e0e0;
  border-bottom: 1px; }

#mermaid-1584826734579 .state-note {
  stroke: #aaaa33;
  fill: #fff5ad; }
#mermaid-1584826734579   .state-note text {
    fill: black;
    stroke: none;
    font-size: 10px; }

#mermaid-1584826734579 .stateLabel .box {
  stroke: none;
  stroke-width: 0;
  fill: #ECECFF;
  opacity: 0.5; }

#mermaid-1584826734579 .stateLabel text {
  fill: black;
  font-size: 10px;
  font-weight: bold;
  font-family: 'trebuchet ms', verdana, arial;
  font-family: var(--mermaid-font-family); }

:root {
  --mermaid-font-family: '"trebuchet ms", verdana, arial';
  --mermaid-font-family: "Comic Sans MS", "Comic Sans", cursive; }

:root { --mermaid-font-family: "trebuchet ms", verdana, arial;}</style><style>#mermaid-1584826734579 {
    color: rgb(157, 165, 180);
    font: normal normal 400 normal 18px / 25.7143px "trebuchet ms", verdana, arial;
  }</style><g/><defs><marker id="extensionStart" class="extension" refX="0" refY="7" markerWidth="190" markerHeight="240" orient="auto"><path d="M 1,7 L18,13 V 1 Z"/></marker></defs><defs><marker id="extensionEnd" refX="19" refY="7" markerWidth="20" markerHeight="28" orient="auto"><path d="M 1,1 V 13 L18,7 Z"/></marker></defs><defs><marker id="compositionStart" class="extension" refX="0" refY="7" markerWidth="190" markerHeight="240" orient="auto"><path d="M 18,7 L9,13 L1,7 L9,1 Z"/></marker></defs><defs><marker id="compositionEnd" refX="19" refY="7" markerWidth="20" markerHeight="28" orient="auto"><path d="M 18,7 L9,13 L1,7 L9,1 Z"/></marker></defs><defs><marker id="aggregationStart" class="extension" refX="0" refY="7" markerWidth="190" markerHeight="240" orient="auto"><path d="M 18,7 L9,13 L1,7 L9,1 Z"/></marker></defs><defs><marker id="aggregationEnd" refX="19" refY="7" markerWidth="20" markerHeight="28" orient="auto"><path d="M 18,7 L9,13 L1,7 L9,1 Z"/></marker></defs><defs><marker id="dependencyStart" class="extension" refX="0" refY="7" markerWidth="190" markerHeight="240" orient="auto"><path d="M 5,7 L9,13 L1,7 L9,1 Z"/></marker></defs><defs><marker id="dependencyEnd" refX="19" refY="7" markerWidth="20" markerHeight="28" orient="auto"><path d="M 18,7 L9,13 L14,7 L9,1 Z"/></marker></defs><g id="classid-Graph-0" class="classGroup " transform="translate(47.03515625,0 )"><rect x="0" y="0" width="115.3125" height="51"/><text y="15" x="0"><tspan class="title" x="43.59375">Graph</tspan></text><line x1="0" y1="21" y2="21" x2="115.3125"/><text x="5" y="31" fill="white" class="classText"><tspan x="5">+List nodes</tspan><tspan x="5" dy="10">+Communicator comm</tspan></text><line x1="0" y1="47" y2="47" x2="115.3125"/><text x="5" y="62" fill="white" class="classText"/></g><g id="classid-Node-1" class="classGroup " transform="translate(387.328125,101 )"><rect x="0" y="0" width="94.71875" height="41"/><text y="15" x="0"><tspan class="title" x="35.296875">Node</tspan></text><line x1="0" y1="21" y2="21" x2="94.71875"/><text x="5" y="31" fill="white" class="classText"><tspan x="5">+Updater updater</tspan></text><line x1="0" y1="37" y2="37" x2="94.71875"/><text x="5" y="52" fill="white" class="classText"/></g><g id="classid-ADMM-2" class="classGroup " transform="translate(0,106.5 )"><rect x="0" y="0" width="38.203125" height="30"/><text y="15" x="0"><tspan class="title" x="5">ADMM</tspan></text><line x1="0" y1="21" y2="21" x2="38.203125"/><text x="5" y="31" fill="white" class="classText"/><line x1="0" y1="26" y2="26" x2="38.203125"/><text x="5" y="41" fill="white" class="classText"/></g><g id="classid-Joint-3" class="classGroup " transform="translate(88.203125,106.5 )"><rect x="0" y="0" width="33.859375" height="30"/><text y="15" x="0"><tspan class="title" x="5">Joint</tspan></text><line x1="0" y1="21" y2="21" x2="33.859375"/><text x="5" y="31" fill="white" class="classText"/><line x1="0" y1="26" y2="26" x2="33.859375"/><text x="5" y="41" fill="white" class="classText"/></g><g id="classid-Serial-4" class="classGroup " transform="translate(172.0625,106.5 )"><rect x="0" y="0" width="36.4375" height="30"/><text y="15" x="0"><tspan class="title" x="5">Serial</tspan></text><line x1="0" y1="21" y2="21" x2="36.4375"/><text x="5" y="31" fill="white" class="classText"/><line x1="0" y1="26" y2="26" x2="36.4375"/><text x="5" y="41" fill="white" class="classText"/></g><g id="classid-Communicator-5" class="classGroup " transform="translate(258.5,106.5 )"><rect x="0" y="0" width="78.828125" height="30"/><text y="15" x="0"><tspan class="title" x="5">Communicator</tspan></text><line x1="0" y1="21" y2="21" x2="78.828125"/><text x="5" y="31" fill="white" class="classText"/><line x1="0" y1="26" y2="26" x2="78.828125"/><text x="5" y="41" fill="white" class="classText"/></g><g id="classid-MPI-6" class="classGroup " transform="translate(284.7578125,211 )"><rect x="0" y="0" width="26.3125" height="30"/><text y="15" x="0"><tspan class="title" x="5">MPI</tspan></text><line x1="0" y1="21" y2="21" x2="26.3125"/><text x="5" y="31" fill="white" class="classText"/><line x1="0" y1="26" y2="26" x2="26.3125"/><text x="5" y="41" fill="white" class="classText"/></g><g id="classid-Updater-7" class="classGroup " transform="translate(383.5703125,192 )"><rect x="0" y="0" width="102.234375" height="68"/><text y="15" x="0"><tspan class="title" x="31.8984375">Updater</tspan></text><line x1="0" y1="21" y2="21" x2="102.234375"/><text x="5" y="31" fill="white" class="classText"><tspan x="5">+function method</tspan><tspan x="5" dy="10">+Operator operator</tspan></text><line x1="0" y1="47" y2="47" x2="102.234375"/><text x="5" y="62" fill="white" class="classText"><tspan x="5">+__call__()</tspan></text></g><g id="classid-Operator-8" class="classGroup " transform="translate(573.24609375,310 )"><rect x="0" y="0" width="118.46875" height="78"/><text y="15" x="0"><tspan class="title" x="37.828125">Operator</tspan></text><line x1="0" y1="21" y2="21" x2="118.46875"/><text x="5" y="31" fill="white" class="classText"><tspan x="5">+module array_module</tspan><tspan x="5" dy="10">+function as_numpy</tspan></text><line x1="0" y1="47" y2="47" x2="118.46875"/><text x="5" y="62" fill="white" class="classText"><tspan x="5">+fwd()</tspan><tspan x="5" dy="10">+adj()</tspan></text></g><g id="classid-ContextManager-9" class="classGroup " transform="translate(599.16015625,197.5 )"><rect x="0" y="0" width="86.640625" height="57"/><text y="15" x="0"><tspan class="title" x="5">ContextManager</tspan></text><line x1="0" y1="21" y2="21" x2="86.640625"/><text x="5" y="31" fill="white" class="classText"/><line x1="0" y1="26" y2="26" x2="86.640625"/><text x="5" y="41" fill="white" class="classText"><tspan x="5">__enter__()</tspan><tspan x="5" dy="10">__exit__()</tspan></text></g><g id="classid-Ptycho-10" class="classGroup " transform="translate(372.20703125,438 )"><rect x="0" y="0" width="224.140625" height="148"/><text y="15" x="0"><tspan class="title" x="95.96875">Ptycho</tspan></text><line x1="0" y1="21" y2="21" x2="224.140625"/><text x="5" y="31" fill="white" class="classText"><tspan x="5">+int nscan</tspan><tspan x="5" dy="10">+int probe_shape</tspan><tspan x="5" dy="10">+int detector_shape</tspan><tspan x="5" dy="10">+int nz</tspan><tspan x="5" dy="10">+int n</tspan><tspan x="5" dy="10">+int ntheta</tspan><tspan x="5" dy="10">+Propagation propagation</tspan><tspan x="5" dy="10">+Convolution convolution</tspan></text><line x1="0" y1="107" y2="107" x2="224.140625"/><text x="5" y="122" fill="white" class="classText"><tspan x="5">+fwd(self, probe, scan, psi, **kwargs)</tspan><tspan x="5" dy="10">+adj(self, farplane, probe, scan, **kwargs)</tspan><tspan x="5" dy="10">+adj_probe(self, farplane, scan, psi, **kwargs)</tspan></text></g><g id="classid-Tomo-11" class="classGroup " transform="translate(189.25390625,468 )"><rect x="0" y="0" width="132.953125" height="88"/><text y="15" x="0"><tspan class="title" x="53.296875">Tomo</tspan></text><line x1="0" y1="21" y2="21" x2="132.953125"/><text x="5" y="31" fill="white" class="classText"><tspan x="5">+int ntheta</tspan><tspan x="5" dy="10">+int n</tspan><tspan x="5" dy="10">+int nz</tspan></text><line x1="0" y1="57" y2="57" x2="132.953125"/><text x="5" y="72" fill="white" class="classText"><tspan x="5">+fwd(self, obj, **kwargs)</tspan><tspan x="5" dy="10">+adj(self, tomo, **kwargs)</tspan></text></g><g id="classid-Convolution-12" class="classGroup " transform="translate(511.3359375,636 )"><rect x="0" y="0" width="92.953125" height="108"/><text y="15" x="0"><tspan class="title" x="18.4375">Convolution</tspan></text><line x1="0" y1="21" y2="21" x2="92.953125"/><text x="5" y="31" fill="white" class="classText"><tspan x="5">+int nscan</tspan><tspan x="5" dy="10">+int probe_shape</tspan><tspan x="5" dy="10">+int nz</tspan><tspan x="5" dy="10">+int n</tspan><tspan x="5" dy="10">+int ntheta</tspan></text><line x1="0" y1="77" y2="77" x2="92.953125"/><text x="5" y="92" fill="white" class="classText"><tspan x="5">+fwd()</tspan><tspan x="5" dy="10">+adj()</tspan></text></g><g id="classid-Propagation-13" class="classGroup " transform="translate(654.2890625,646 )"><rect x="0" y="0" width="105.71875" height="88"/><text y="15" x="0"><tspan class="title" x="24.90625">Propagation</tspan></text><line x1="0" y1="21" y2="21" x2="105.71875"/><text x="5" y="31" fill="white" class="classText"><tspan x="5">+int nwaves</tspan><tspan x="5" dy="10">+int probe_shape</tspan><tspan x="5" dy="10">+int detector_shape</tspan></text><line x1="0" y1="57" y2="57" x2="105.71875"/><text x="5" y="72" fill="white" class="classText"><tspan x="5">+fwd()</tspan><tspan x="5" dy="10">+adj()</tspan></text></g><g id="classid-ConjugateGradient-14" class="classGroup " transform="translate(129.03515625,334 )"><rect x="0" y="0" width="98.0625" height="30"/><text y="15" x="0"><tspan class="title" x="5">ConjugateGradient</tspan></text><line x1="0" y1="21" y2="21" x2="98.0625"/><text x="5" y="31" fill="white" class="classText"/><line x1="0" y1="26" y2="26" x2="98.0625"/><text x="5" y="41" fill="white" class="classText"/></g><g id="classid-Dual-15" class="classGroup " transform="translate(277.09765625,334 )"><rect x="0" y="0" width="30.65625" height="30"/><text y="15" x="0"><tspan class="title" x="5">Dual</tspan></text><line x1="0" y1="21" y2="21" x2="30.65625"/><text x="5" y="31" fill="white" class="classText"/><line x1="0" y1="26" y2="26" x2="30.65625"/><text x="5" y="41" fill="white" class="classText"/></g><g id="classid-EPIE-16" class="classGroup " transform="translate(357.75390625,334 )"><rect x="0" y="0" width="30.328125" height="30"/><text y="15" x="0"><tspan class="title" x="5">EPIE</tspan></text><line x1="0" y1="21" y2="21" x2="30.328125"/><text x="5" y="31" fill="white" class="classText"/><line x1="0" y1="26" y2="26" x2="30.328125"/><text x="5" y="41" fill="white" class="classText"/></g><g id="classid-TotalVariation-17" class="classGroup " transform="translate(438.08203125,334 )"><rect x="0" y="0" width="76.75" height="30"/><text y="15" x="0"><tspan class="title" x="5">TotalVariation</tspan></text><line x1="0" y1="21" y2="21" x2="76.75"/><text x="5" y="31" fill="white" class="classText"/><line x1="0" y1="26" y2="26" x2="76.75"/><text x="5" y="41" fill="white" class="classText"/></g><path d="M61.472772277227726,51L54.410903981023104,55.166666666666664C47.34903568481849,59.333333333333336,33.225299092409244,67.66666666666667,26.163430796204622,76.91666666666667C19.1015625,86.16666666666667,19.1015625,96.33333333333333,19.1015625,101.41666666666667L19.1015625,106.5" id="edge0" class="relation" marker-start="url(#extensionStart)"/><path d="M104.91429455445545,51L104.95071421204621,55.166666666666664C104.98713386963698,59.333333333333336,105.05997318481849,67.66666666666667,105.09639284240923,76.91666666666667C105.1328125,86.16666666666667,105.1328125,96.33333333333333,105.1328125,101.41666666666667L105.1328125,106.5" id="edge1" class="relation" marker-start="url(#extensionStart)"/><path d="M147.91004022277227,51L154.9719085189769,55.166666666666664C162.0337768151815,59.333333333333336,176.15751340759076,67.66666666666667,183.2193817037954,76.91666666666667C190.28125,86.16666666666667,190.28125,96.33333333333333,190.28125,101.41666666666667L190.28125,106.5" id="edge2" class="relation" marker-start="url(#extensionStart)"/><path d="M162.34765625,40.56883655109674L184.94205729166666,46.47403045924728C207.53645833333334,52.379224367397825,252.72526041666666,64.18961218369891,275.3196614583333,75.17813942518279C297.9140625,86.16666666666667,297.9140625,96.33333333333333,297.9140625,101.41666666666667L297.9140625,106.5" id="edge3" class="relation" marker-end="url(#compositionEnd)"/><path d="M162.34765625,34.32325785106358L207.73763020833334,41.269381542552985C253.12760416666666,48.21550523404238,343.9075520833333,62.10775261702119,389.2975260416667,73.22054297517727C434.6875,84.33333333333333,434.6875,92.66666666666667,434.6875,96.83333333333333L434.6875,101" id="edge4" class="relation" marker-end="url(#compositionEnd)"/><path d="M297.9140625,136.5L297.9140625,141.58333333333334C297.9140625,146.66666666666666,297.9140625,156.83333333333334,297.9140625,169.25C297.9140625,181.66666666666666,297.9140625,196.33333333333334,297.9140625,203.66666666666666L297.9140625,211" id="edge5" class="relation" marker-start="url(#extensionStart)"/><path d="M434.6875,142L434.6875,146.16666666666666C434.6875,150.33333333333334,434.6875,158.66666666666666,434.6875,167C434.6875,175.33333333333334,434.6875,183.66666666666666,434.6875,187.83333333333334L434.6875,192" id="edge6" class="relation" marker-end="url(#aggregationEnd)"/><path d="M383.5703125,237.7524012481924L349.3196614583333,245.6270010401603C315.0690104166667,253.50160083212828,246.56770833333334,269.2508004160641,212.31705729166666,285.2920668746987C178.06640625,301.3333333333333,178.06640625,317.6666666666667,178.06640625,325.8333333333333L178.06640625,334" id="edge7" class="relation" marker-start="url(#extensionStart)"/><path d="M383.5703125,247.1997583678849L368.3795572916667,253.49979863990407C353.1888020833333,259.79983891192325,322.8072916666667,272.39991945596165,307.6165364583333,286.8666263946475C292.42578125,301.3333333333333,292.42578125,317.6666666666667,292.42578125,325.8333333333333L292.42578125,334" id="edge8" class="relation" marker-start="url(#extensionStart)"/><path d="M399.091498940678,260L394.7292439088983,264.1666666666667C390.3669888771187,268.3333333333333,381.6424788135593,276.6666666666667,377.2802237817796,289C372.91796875,301.3333333333333,372.91796875,317.6666666666667,372.91796875,325.8333333333333L372.91796875,334" id="edge9" class="relation" marker-start="url(#extensionStart)"/><path d="M458.75807733050846,260L461.70790298375704,264.1666666666667C464.6577286370057,268.3333333333333,470.55737994350284,276.6666666666667,473.5072055967514,289C476.45703125,301.3333333333333,476.45703125,317.6666666666667,476.45703125,325.8333333333333L476.45703125,334" id="edge10" class="relation" marker-start="url(#extensionStart)"/><path d="M485.8046875,250.01698447755624L498.2141927083333,255.8474870646302C510.6236979166667,261.67798965170414,535.4427083333334,273.33899482585207,552.553955078125,283.3361640795927C569.6652018229166,293.3333333333333,579.0686848958334,301.6666666666667,583.7704264322916,305.8333333333333L588.47216796875,310" id="edge11" class="relation" marker-end="url(#compositionEnd)"/><path d="M642.48046875,254.5L642.48046875,259.5833333333333C642.48046875,264.6666666666667,642.48046875,274.8333333333333,641.8294270833334,284.0833333333333C641.1783854166666,293.3333333333333,639.8763020833334,301.6666666666667,639.2252604166666,305.8333333333333L638.57421875,310" id="edge12" class="relation" marker-start="url(#extensionStart)"/><path d="M573.24609375,359.0623755806238L520.3268229166666,368.0519796505198C467.4075520833333,377.0415837204159,361.5690104166667,395.0207918602079,308.6497395833333,413.1770625967706C255.73046875,431.3333333333333,255.73046875,449.6666666666667,255.73046875,458.8333333333333L255.73046875,468" id="edge13" class="relation" marker-start="url(#extensionStart)"/><path d="M573.24609375,374.57975751186086L558.41796875,380.98313125988403C543.58984375,387.38650500790726,513.93359375,400.1932525039536,499.10546875,410.76329291864346C484.27734375,421.3333333333333,484.27734375,429.6666666666667,484.27734375,433.8333333333333L484.27734375,438" id="edge14" class="relation" marker-start="url(#extensionStart)"/><path d="M638.57421875,388L639.2252604166666,392.1666666666667C639.8763020833334,396.3333333333333,641.1783854166666,404.6666666666667,641.8294270833334,425.3333333333333C642.48046875,446,642.48046875,479,642.48046875,512C642.48046875,545,642.48046875,578,636.115234375,600.4391234140716C629.75,622.878246828143,617.01953125,634.756493656286,610.654296875,640.6956170703576L604.2890625,646.634740484429" id="edge15" class="relation" marker-start="url(#extensionStart)"/><path d="M690.1687622070312,388L696.332041422526,392.1666666666667C702.4953206380209,396.3333333333333,714.8218790690104,404.6666666666667,720.9851582845052,425.3333333333333C727.1484375,446,727.1484375,479,727.1484375,512C727.1484375,545,727.1484375,578,725.6716442510548,600.3333333333334C724.1948510021097,622.6666666666666,721.2412645042194,634.3333333333334,719.7644712552742,640.1666666666666L718.2876780063291,646" id="edge16" class="relation" marker-start="url(#extensionStart)"/><path d="M476.80259627525254,586L476.38172085437714,590.1666666666666C475.9608454335017,594.3333333333334,475.11909459175087,602.6666666666666,480.8746514625421,612.674444704232C486.6302083333333,622.6822227417972,498.9830729166667,634.3644454835944,505.1595052083333,640.205556854493L511.3359375,646.0466682253916" id="edge17" class="relation" marker-end="url(#aggregationEnd)"/><path d="M540.0897648358585,586L543.2323561132155,590.1666666666666C546.3749473905724,594.3333333333334,552.6601299452863,602.6666666666666,571.6933462226431,615.3038657529432C590.7265625,627.9410648392198,622.5078125,644.8821296784396,638.3984375,653.3526620980496L654.2890625,661.8231945176594" id="edge18" class="relation" marker-end="url(#aggregationEnd)"/><style type="text/css">.label { color: #000000 !important; } </style></svg>